Coordinates
version=1
nRows=7
nColumns=63
inDegrees=yes

Units are S.I. units (second, meters, Newtons, ...)
If the header above contains a line with 'inDegrees', this indicates whether rotational values are in degrees (yes) or radians (no).

endheader
time	pelvis_tilt	pelvis_list	pelvis_rotation	pelvis_tx	pelvis_ty	pelvis_tz	hip_flexion_r	hip_adduction_r	hip_rotation_r	knee_angle_r	knee_angle_r_beta	ankle_angle_r	subtalar_angle_r	mtp_angle_r	hip_flexion_l	hip_adduction_l	hip_rotation_l	knee_angle_l	knee_angle_l_beta	ankle_angle_l	subtalar_angle_l	mtp_angle_l	L5_S1_Flex_Ext	L5_S1_Lat_Bending	L5_S1_axial_rotation	L4_L5_Flex_Ext	L4_L5_Lat_Bending	L4_L5_axial_rotation	L3_L4_Flex_Ext	L3_L4_Lat_Bending	L3_L4_axial_rotation	L2_L3_Flex_Ext	L2_L3_Lat_Bending	L2_L3_axial_rotation	L1_L2_Flex_Ext	L1_L2_Lat_Bending	L1_L2_axial_rotation	L1_T12_Flex_Ext	L1_T12_Lat_Bending	L1_T12_axial_rotation	Abs_r3	Abs_r2	Abs_r1	Abs_t1	Abs_t2	neck_flexion	neck_bending	neck_rotation	arm_flex_r	arm_add_r	arm_rot_r	elbow_flex_r	pro_sup_r	wrist_flex_r	wrist_dev_r	arm_flex_l	arm_add_l	arm_rot_l	elbow_flex_l	pro_sup_l	wrist_flex_l	wrist_dev_l
      2.30508475	     19.87954656	    -35.48129865	    114.11281472	      0.03881787	      0.85937842	      0.68157566	     49.45574288	      0.99291817	    -26.03803570	     16.92196741	      0.29534405	     23.04723986	     18.09626399	      0.00000000	     61.55256396	     -2.71526358	      4.56450310	     30.77705131	      0.53716088	     27.99728269	      7.31199195	      0.00000000	     -1.13013306	      3.49240009	     -1.68145198	     -2.09877011	      4.64489212	     -1.78654273	     -1.85669561	      8.49142159	     -1.78654273	     -1.29162908	      8.49142159	     -1.47127048	     -1.04944156	      7.12170227	     -1.36617973	     -0.64575803	      5.40972774	     -1.26108898	     -8.07242746	     39.50672834	     -9.35173147	      0.00000000	      0.00000000	      5.57656115	     -5.19018578	    -13.98878025	    -27.54975500	    -44.12398733	     21.12523177	    124.86596338	     88.78608846	     42.44205839	     32.72643090	      4.92331192	     -5.88464449	     36.12004796	     50.97101525	     89.42076199	    -23.33000555	    -14.26331998
      2.32203390	     17.29153689	    -36.16304188	    111.68255603	      0.04201472	      0.85950444	      0.68269571	     49.96726634	      0.00129686	    -23.68977666	     17.80346630	      0.31072911	     23.37809401	     18.01667238	      0.00000000	     60.94500526	     -2.20664626	      2.81737458	     30.46009989	      0.53162903	     27.51000216	      6.25952726	      0.00000000	     -1.22379220	      3.18088152	     -1.44560886	     -2.27270449	      4.23057243	     -1.53595941	     -2.01056820	      7.73399534	     -1.53595941	     -1.39867210	      7.73399534	     -1.26490775	     -1.13641343	      6.48645360	     -1.17455720	     -0.69927486	      4.92718548	     -1.08420664	     -8.74142529	     35.98276797	     -8.04004277	      0.00000000	      0.00000000	      4.49098910	     -3.34847976	    -16.26704967	    -27.61666636	    -43.05501731	     22.10057615	    121.61904836	     88.30829926	     40.84046084	     29.64799623	      5.49137770	     -7.29963588	     37.31969648	     51.23060813	     89.41329665	    -23.87412785	    -13.96775725
      2.33898305	     13.49927144	    -37.19027256	    108.11434963	      0.04721615	      0.85955341	      0.68364752	     50.96911494	     -1.36331477	    -20.38735375	     19.12717997	      0.33383227	     23.74616860	     17.94356919	      0.00000000	     60.16559450	     -1.58678595	     -0.22840215	     29.75003014	      0.51923598	     26.90966171	      5.67975935	      0.00000000	     -1.30446005	      2.71512054	     -1.16685111	     -2.42251275	      3.61111031	     -1.23977931	     -2.14309741	      6.60154407	     -1.23977931	     -1.49086739	      6.60154407	     -1.02099472	     -1.21132160	      5.53667380	     -0.94806653	     -0.74536847	      4.20572171	     -0.87513833	     -9.31762768	     30.71398653	     -6.48967583	      0.00000000	      0.00000000	      3.56351702	     -0.67635958	    -19.30780229	    -27.03804803	    -41.64544079	     24.46317940	    116.34227939	     88.08785227	     38.80097577	     20.57719304	      5.89831981	     -9.43042758	     38.26120434	     51.92328627	     89.41782359	    -23.77696565	    -13.09975672
      2.35593220	    -32.24946082	    -34.39328678	     65.49208510	      0.10763138	      0.85441620	      0.68292487	     64.20292344	    -10.77284157	     17.70868044	     30.34141027	      0.52955751	     27.32799126	     18.78134054	      0.00000000	     51.75317154	      9.80450228	    -40.95809869	     16.75484683	      0.29242724	     22.25146372	     11.98302579	      0.00000000	     -1.35725534	     -2.54409544	      0.09897119	     -2.52055890	     -3.38364694	      0.10515689	     -2.22983480	     -6.18571365	      0.10515689	     -1.55120713	     -6.18571365	      0.08659979	     -1.26034731	     -5.18791942	      0.08041409	     -0.77553570	     -3.94080384	      0.07422839	     -9.69473919	    -28.77931644	      0.55044808	      0.00000000	      0.00000000	      3.23885019	     21.51403355	    -29.39645575	    -14.68935348	    -20.21079164	     45.69959855	     94.30173256	     88.42765435	     29.15536056	     -9.11237295	     -2.53020008	    -36.53882706	     29.39323895	     69.70045603	     89.47491844	    -20.16783777	     -6.61759633
      2.37288136	    -33.87233405	    -34.29922803	     64.10030501	      0.10975025	      0.85377066	      0.68279797	     65.04071818	    -10.87556420	     19.07430896	     30.38509225	      0.53031990	     27.20942135	     18.79856938	      0.00000000	     52.01541944	     10.26644531	    -42.80554240	     16.35108643	      0.28538029	     21.77168294	     12.97999376	      0.00000000	     -1.29964243	     -2.72665140	      0.22175276	     -2.41356595	     -3.62644636	      0.23561231	     -2.13518255	     -6.62958022	      0.23561231	     -1.48536133	     -6.62958022	      0.19403367	     -1.20684796	     -5.56018754	      0.18017412	     -0.74261568	     -4.22358302	      0.16631457	     -9.28321591	    -30.84442599	      1.23332233	      0.00000000	      0.00000000	      3.58638674	     22.14421129	    -30.74797888	    -13.47860000	    -19.86069107	     51.19675467	     89.56991770	     88.71891815	     15.26266921	    -23.05093944	     -2.07664843	    -37.99434598	     30.40651061	     70.35506071	     89.47457947	    -19.65826692	     -5.42384900
      2.38983051	    -34.48072646	    -33.86417338	     63.58632329	      0.11086065	      0.85465924	      0.68273533	     65.04230383	    -11.00733249	     19.62948809	     30.34228037	      0.52957269	     27.12391047	     18.81019815	      0.00000000	     51.78215963	     10.66838853	    -42.95340989	     16.04870347	      0.28010272	     21.27310274	     12.46096896	      0.00000000	     -1.30220953	     -2.81765736	      0.12486891	     -2.41833332	     -3.74748428	      0.13267322	     -2.13940004	     -6.85085210	      0.13267322	     -1.48829527	     -6.85085210	      0.10926030	     -1.20923177	     -5.74576688	      0.10145599	     -0.74408252	     -4.36455125	      0.09365168	     -9.30155245	    -31.87390355	      0.69448343	      0.00000000	      0.00000000	      3.13912150	     22.39569554	    -29.99976667	     -3.50914999	    -19.09407906	     74.65428666	     85.86045940	     89.69394417	    -65.72850542	    -24.61688401	     -2.50114815	    -38.76316691	     30.03827374	     70.55399585	     89.46225563	    -19.32154453	     -4.78946830
      2.40677966	    -34.53982400	    -33.60611450	     63.65165549	      0.11023748	      0.85542972	      0.68317871	     64.98523336	    -11.19959773	     19.52419618	     30.39341587	      0.53046518	     27.13574485	     18.81427957	      0.00000000	     51.62446116	     10.86336414	    -42.98907398	     16.04130136	      0.27997353	     21.11052667	     12.63136089	      0.00000000	     -1.31664234	     -2.82116164	      0.04067337	     -2.44513650	     -3.75214498	      0.04321546	     -2.16311171	     -6.85937240	      0.04321546	     -1.50479053	     -6.85937240	      0.03558920	     -1.22263408	     -5.75291281	      0.03304711	     -0.75232943	     -4.36997937	      0.03050503	     -9.40464459	    -31.91354466	      0.22621309	      0.00000000	      0.00000000	      2.82967351	     22.25691415	    -29.07131762	     -2.22649274	    -18.21671161	     76.95005697	     83.23866264	     89.74233999	    -68.37548197	    -24.67866719	     -2.25121153	    -39.03426755	     30.46164692	     70.20683683	     89.44226657	    -18.55786399	     -4.04346159
